<?xml version="1.0" standalone="no"?>
<!DOCTYPE svg PUBLIC "-//W3C//DTD SVG 20010904//EN"
 "http://www.w3.org/TR/2001/REC-SVG-20010904/DTD/svg10.dtd">
<svg version="1.0" xmlns="http://www.w3.org/2000/svg"
 width="225.000000pt" height="225.000000pt" viewBox="0 0 225.000000 225.000000"
 preserveAspectRatio="xMidYMid meet">

<g transform="translate(0.000000,225.000000) scale(0.100000,-0.100000)"
fill="#000000" stroke="none">
<path d="M25 2105 c-30 -29 -32 -58 -5 -85 18 -18 33 -20 165 -20 141 0 146
-1 155 -22 10 -23 300 -1094 300 -1107 0 -4 -20 -12 -44 -19 -167 -44 -201
-274 -53 -366 38 -23 62 -30 121 -34 l73 -4 -5 -68 c-5 -80 8 -128 51 -176 92
-106 252 -106 344 0 43 48 56 96 51 177 l-5 69 203 0 203 0 -10 -32 c-37 -130
53 -273 185 -292 110 -17 219 53 253 160 14 47 15 63 5 111 -11 52 -10 59 8
78 25 27 25 60 0 85 -20 20 -33 20 -704 20 -676 0 -684 0 -710 21 -33 26 -36
79 -6 109 20 20 33 20 688 20 l668 0 44 23 c25 12 53 36 62 53 26 46 190 762
183 799 -7 41 -30 72 -68 91 -28 15 -118 17 -831 23 l-799 6 -44 160 c-65 234
-78 245 -308 245 -142 0 -147 -1 -170 -25z m859 -537 c6 -25 36 -254 36 -269
0 -5 -58 -9 -129 -9 l-129 0 -16 63 c-8 34 -26 101 -40 150 l-24 87 149 0
c146 0 149 0 153 -22z m424 -130 l3 -148 -129 0 -129 0 -17 133 c-10 72 -20
140 -22 150 -5 16 5 17 143 15 l148 -3 3 -147z m415 145 c4 -7 -13 -163 -29
-255 l-6 -38 -124 0 -124 0 0 150 0 150 139 0 c77 0 142 -3 144 -7z m393 -20
c-3 -10 -15 -58 -26 -108 -11 -49 -25 -107 -31 -127 l-10 -38 -115 0 -115 0 6
33 c5 30 35 246 35 254 0 2 59 3 131 3 120 0 130 -1 125 -17z m-1172 -440 c3
-21 10 -76 16 -123 6 -47 13 -97 16 -112 l6 -28 -95 0 c-64 0 -98 4 -105 13
-5 6 -24 66 -42 132 -17 66 -34 128 -36 138 -5 15 5 17 114 17 l120 0 6 -37z
m366 -113 l0 -150 -100 0 c-55 0 -100 3 -100 8 0 4 -9 70 -20 147 -11 77 -20
141 -20 142 0 2 54 3 120 3 l120 0 0 -150z m359 128 c0 -13 -8 -79 -17 -148
l-17 -125 -97 -3 -98 -3 0 151 0 150 115 0 c113 0 115 0 114 -22z m351 18 c0
-22 -64 -274 -72 -283 -7 -9 -39 -13 -94 -13 -98 0 -91 -18 -67 168 l17 132
108 0 c59 0 108 -2 108 -4z m-1001 -732 c26 -21 31 -33 31 -68 0 -49 -18 -79
-59 -96 -98 -40 -177 85 -102 161 39 38 87 39 130 3z m827 8 c77 -62 39 -177
-58 -177 -53 0 -98 47 -98 101 0 75 99 123 156 76z"/>
</g>
</svg>
