<?xml version="1.0" standalone="no"?>
<!DOCTYPE svg PUBLIC "-//W3C//DTD SVG 20010904//EN"
 "http://www.w3.org/TR/2001/REC-SVG-20010904/DTD/svg10.dtd">
<svg version="1.0" xmlns="http://www.w3.org/2000/svg"
 width="225.000000pt" height="225.000000pt" viewBox="0 0 225.000000 225.000000"
 preserveAspectRatio="xMidYMid meet">

<g transform="translate(0.000000,225.000000) scale(0.100000,-0.100000)"
fill="#000000" stroke="none">
<path d="M995 1956 c-142 -28 -251 -84 -356 -183 -128 -121 -207 -287 -216
-453 -4 -71 6 -145 56 -443 32 -197 61 -360 63 -362 6 -7 573 -228 583 -228 6
0 140 51 297 113 262 103 288 115 292 139 3 14 31 177 62 361 46 277 55 350
51 420 -14 284 -240 553 -522 625 -87 22 -227 27 -310 11z m268 -72 c100 -23
170 -56 254 -120 79 -61 136 -130 181 -219 56 -112 78 -240 59 -343 l-12 -63
-44 61 c-24 33 -47 60 -50 60 -3 0 -17 -18 -31 -40 -13 -22 -27 -40 -30 -40
-3 0 -57 63 -119 140 -62 77 -116 138 -122 135 -5 -3 -23 -27 -40 -52 l-32
-45 -104 158 c-57 88 -108 159 -113 159 -5 0 -20 -14 -32 -32 -38 -53 -303
-382 -308 -383 -3 0 -22 27 -43 60 -20 33 -41 60 -46 60 -4 0 -37 -39 -72 -86
-62 -83 -64 -85 -71 -58 -8 29 5 145 23 209 6 22 24 67 41 100 129 262 426
403 711 339z"/>
</g>
</svg>
